<svg width="68" height="68" viewBox="0 0 68 68" fill="none" xmlns="http://www.w3.org/2000/svg">
<path d="M39.0557 53.392C33.782 51.493 28.3576 51.2009 23.3852 52.5156C19.9196 53.3921 16.6047 55.145 13.5911 57.3362L11.4816 59.0892V59.0892C11.1578 59.403 11.1732 59.9271 11.5148 60.2215L11.9041 60.5569C12.1176 60.7409 12.334 60.9381 12.5364 61.1343V61.1343C12.8377 61.4264 13.1391 61.5725 13.5911 61.8647V61.8647C14.1306 62.2133 14.8329 62.1761 15.3325 61.7725L15.3992 61.7186V61.7186C15.856 61.2758 16.3987 60.9272 16.9092 60.5477C19.4209 58.6803 22.1697 57.415 25.0426 56.7519C29.1109 55.7293 33.4806 55.8754 37.8503 57.4823C41.4665 58.797 48.8498 60.4039 57.7398 56.7519L57.8853 56.6813C57.9885 56.6313 58.0831 56.5651 58.1655 56.4852L58.1792 56.4719C58.3799 56.2774 58.5939 56.0699 58.7945 55.8754V55.8754C59.5479 54.9989 60.3013 54.1224 60.904 53.0999V53.0999C61.6813 51.9319 60.3276 50.5291 59.0959 51.2008V51.2008C52.014 54.9989 45.5349 55.7293 39.0557 53.392Z" fill="#557DE9"/>
<path d="M39.0557 53.392C33.782 51.493 28.3576 51.2009 23.3852 52.5156C19.9196 53.3921 16.6047 55.145 13.5911 57.3362L11.4816 59.0892V59.0892C11.1578 59.403 11.1732 59.9271 11.5148 60.2215L11.9041 60.5569C12.1176 60.7409 12.334 60.9381 12.5364 61.1343V61.1343C12.8377 61.4264 13.1391 61.5725 13.5911 61.8647V61.8647C14.1306 62.2133 14.8329 62.1761 15.3325 61.7725L15.3992 61.7186V61.7186C15.856 61.2758 16.3987 60.9272 16.9092 60.5477C19.4209 58.6803 22.1697 57.415 25.0426 56.7519C29.1109 55.7293 33.4806 55.8754 37.8503 57.4823C41.4665 58.797 48.8498 60.4039 57.7398 56.7519L57.8853 56.6813C57.9885 56.6313 58.0831 56.5651 58.1655 56.4852L58.1792 56.4719C58.3799 56.2774 58.5939 56.0699 58.7945 55.8754V55.8754C59.5479 54.9989 60.3013 54.1224 60.904 53.0999V53.0999C61.6813 51.9319 60.3276 50.5291 59.0959 51.2008V51.2008C52.014 54.9989 45.5349 55.7293 39.0557 53.392Z" fill="#557DE9"/>
<path d="M18.1032 36.2228C22.3168 35.0702 26.8426 35.2349 31.3684 37.046C36.3624 39.0218 49.1594 41.8209 63.5171 28.155L65.858 25.6853L66.0141 25.5206L66.0327 25.501C66.403 25.1103 66.5171 24.5421 66.3262 24.0388V24.0388C66.1701 23.3802 65.858 22.557 65.5459 21.7337L65.4292 21.389C65.1279 20.499 63.9882 20.2488 63.3418 20.9308V20.9308C63.2511 21.0264 63.1809 21.1393 63.102 21.2448C62.9321 21.4718 62.6784 21.6306 62.4247 21.8983C55.5579 29.3075 44.9458 36.8814 32.7729 32.2712C27.3108 30.1308 21.6926 29.8015 16.5425 31.2833C11.5716 32.7583 7.21911 35.5384 3.17733 39.4612C3.15643 39.4815 3.12123 39.4669 3.12123 39.4377V39.4377C3.12123 39.4075 3.0838 39.3932 3.06369 39.4159L1.07583 41.6529C0.88546 41.8672 0.692559 42.0955 0.487274 42.2955C0.480928 42.3017 0.474571 42.3081 0.468213 42.3148V42.3148C0.177669 42.6213 0.058686 43.0564 0.156071 43.4673V43.4673C0.305343 44.2548 0.597385 45.0422 0.759079 45.8296C0.773747 45.901 0.792574 45.9716 0.816996 46.0403L0.871456 46.1935C1.23015 47.2026 2.57255 47.3976 3.20352 46.5322V46.5322C3.2526 46.4649 3.29326 46.3918 3.33806 46.3216C3.37893 46.2575 3.42544 46.1993 3.47439 46.1438C3.77516 45.8023 4.06932 45.4474 4.39842 45.1331C7.63234 42.045 12.022 37.9441 18.1032 36.2228Z" fill="#557DE9"/>
<path d="M2.73485 34.5175C3.34312 33.835 4.00672 33.1979 4.6627 32.5611C7.96314 29.3574 11.6352 27.302 15.5626 26.1579C19.7229 25.0582 24.1913 25.2153 28.6598 26.9434C42.5274 32.1278 54.546 23.6442 59.7849 19.0882L61.788 17.0459V17.0459C62.226 16.6886 62.3237 16.0583 62.0143 15.5853L62.003 15.5679C61.9625 15.506 61.9156 15.4487 61.8657 15.394C61.4448 14.933 61.1458 14.3398 60.7094 13.7467L60.6977 13.7307C60.2192 13.0801 59.2718 13.013 58.7063 13.5896V13.5896C58.5522 13.7467 58.2441 14.0609 58.09 14.218C51.6184 20.5021 41.6029 26.9434 30.2006 22.5445C24.8077 20.5022 19.2606 20.1879 14.1758 21.6019C10.94 22.5445 7.85833 24.1155 4.77664 26.1579L1.54085 28.8287C1.23268 29.1429 1.07859 29.3 0.770424 29.6142V29.6142C0.57292 29.8156 0.462283 30.0864 0.462283 30.3684V30.3997C0.308198 31.4994 0.308179 32.5992 0.154094 33.5418L0.151117 33.6177C0.0992533 34.9396 1.72045 35.612 2.61946 34.6415V34.6415C2.65782 34.6024 2.69619 34.5608 2.73485 34.5175Z" fill="#557DE9"/>
<path d="M67.8544 33.8287C67.9066 32.6495 66.487 32.0165 65.6447 32.8435V32.8435C65.3306 33.1519 65.0166 33.4603 64.7025 33.7687C58.2635 39.7823 47.8983 46.2585 36.2768 41.941C30.7801 39.9365 25.1264 39.6281 19.9439 41.0159C15.0754 42.4036 10.678 44.8708 6.75181 48.5714L4.71021 50.7301V50.7301C4.33743 51.1877 4.30916 51.8356 4.64067 52.3239L4.71021 52.4263C5.18136 53.0431 5.49547 53.5057 5.80957 54.1225V54.1225C6.27662 54.8103 7.27711 54.8471 7.7934 54.1954L7.85117 54.1225C8.00822 53.9683 8.3223 53.6598 8.47935 53.5056C12.2485 49.4966 16.3317 47.0295 21.0432 45.7959C25.2835 44.7165 29.8378 44.8707 34.3922 46.5669C38.3184 47.9546 42.4017 48.4172 46.4849 47.9547C53.7091 47.1837 60.9333 43.1746 66.2729 38.703C66.587 38.3946 66.9011 38.2404 67.2152 37.932L67.3563 37.7935C67.5674 37.5862 67.6864 37.3027 67.6864 37.0068V37.0068C67.6864 36.0816 67.8434 35.0023 67.8434 34.0771L67.8544 33.8287Z" fill="#557DE9"/>
<path d="M18.1032 36.2228C22.3168 35.0702 26.8426 35.2349 31.3684 37.046C36.3624 39.0218 49.1594 41.8209 63.5171 28.155L65.858 25.6853L66.0141 25.5206L66.0327 25.501C66.403 25.1103 66.5171 24.5421 66.3262 24.0388V24.0388C66.1701 23.3802 65.858 22.557 65.5459 21.7337L65.4292 21.389C65.1279 20.499 63.9882 20.2488 63.3418 20.9308V20.9308C63.2511 21.0264 63.1809 21.1393 63.102 21.2448C62.9321 21.4718 62.6784 21.6306 62.4247 21.8983C55.5579 29.3075 44.9458 36.8814 32.7729 32.2712C27.3108 30.1308 21.6926 29.8015 16.5425 31.2833C11.5716 32.7583 7.21911 35.5384 3.17733 39.4612C3.15643 39.4815 3.12123 39.4669 3.12123 39.4377V39.4377C3.12123 39.4075 3.0838 39.3932 3.06369 39.4159L1.07583 41.6529C0.88546 41.8672 0.692559 42.0955 0.487274 42.2955C0.480928 42.3017 0.474571 42.3081 0.468213 42.3148V42.3148C0.177669 42.6213 0.058686 43.0564 0.156071 43.4673V43.4673C0.305343 44.2548 0.597385 45.0422 0.759079 45.8296C0.773747 45.901 0.792574 45.9716 0.816996 46.0403L0.871456 46.1935C1.23015 47.2026 2.57255 47.3976 3.20352 46.5322V46.5322C3.2526 46.4649 3.29326 46.3918 3.33806 46.3216C3.37893 46.2575 3.42544 46.1993 3.47439 46.1438C3.77516 45.8023 4.06932 45.4474 4.39842 45.1331C7.63234 42.045 12.022 37.9441 18.1032 36.2228Z" fill="#557DE9"/>
<path d="M2.73485 34.5175C3.34312 33.835 4.00672 33.1979 4.6627 32.5611C7.96314 29.3574 11.6352 27.302 15.5626 26.1579C19.7229 25.0582 24.1913 25.2153 28.6598 26.9434C42.5274 32.1278 54.546 23.6442 59.7849 19.0882L61.788 17.0459V17.0459C62.226 16.6886 62.3237 16.0583 62.0143 15.5853L62.003 15.5679C61.9625 15.506 61.9156 15.4487 61.8657 15.394C61.4448 14.933 61.1458 14.3398 60.7094 13.7467L60.6977 13.7307C60.2192 13.0801 59.2718 13.013 58.7063 13.5896V13.5896C58.5522 13.7467 58.2441 14.0609 58.09 14.218C51.6184 20.5021 41.6029 26.9434 30.2006 22.5445C24.8077 20.5022 19.2606 20.1879 14.1758 21.6019C10.94 22.5445 7.85833 24.1155 4.77664 26.1579L1.54085 28.8287C1.23268 29.1429 1.07859 29.3 0.770424 29.6142V29.6142C0.57292 29.8156 0.462283 30.0864 0.462283 30.3684V30.3997C0.308198 31.4994 0.308179 32.5992 0.154094 33.5418L0.151117 33.6177C0.0992533 34.9396 1.72045 35.612 2.61946 34.6415V34.6415C2.65782 34.6024 2.69619 34.5608 2.73485 34.5175Z" fill="#557DE9"/>
<path d="M67.8544 33.8287C67.9066 32.6495 66.487 32.0165 65.6447 32.8435V32.8435C65.3306 33.1519 65.0166 33.4603 64.7025 33.7687C58.2635 39.7823 47.8983 46.2585 36.2768 41.941C30.7801 39.9365 25.1264 39.6281 19.9439 41.0159C15.0754 42.4036 10.678 44.8708 6.75181 48.5714L4.71021 50.7301V50.7301C4.33743 51.1877 4.30916 51.8356 4.64067 52.3239L4.71021 52.4263C5.18136 53.0431 5.49547 53.5057 5.80957 54.1225V54.1225C6.27662 54.8103 7.27711 54.8471 7.7934 54.1954L7.85117 54.1225C8.00822 53.9683 8.3223 53.6598 8.47935 53.5056C12.2485 49.4966 16.3317 47.0295 21.0432 45.7959C25.2835 44.7165 29.8378 44.8707 34.3922 46.5669C38.3184 47.9546 42.4017 48.4172 46.4849 47.9547C53.7091 47.1837 60.9333 43.1746 66.2729 38.703C66.587 38.3946 66.9011 38.2404 67.2152 37.932L67.3563 37.7935C67.5674 37.5862 67.6864 37.3027 67.6864 37.0068V37.0068C67.6864 36.0816 67.8434 35.0023 67.8434 34.0771L67.8544 33.8287Z" fill="#557DE9"/>
<path d="M18.1032 36.2228C22.3168 35.0702 26.8426 35.2349 31.3684 37.046C36.3624 39.0218 49.1594 41.8209 63.5171 28.155L65.858 25.6853L66.0141 25.5206L66.0327 25.501C66.403 25.1103 66.5171 24.5421 66.3262 24.0388V24.0388C66.1701 23.3802 65.858 22.557 65.5459 21.7337L65.4292 21.389C65.1279 20.499 63.9882 20.2488 63.3418 20.9308V20.9308C63.2511 21.0264 63.1809 21.1393 63.102 21.2448C62.9321 21.4718 62.6784 21.6306 62.4247 21.8983C55.5579 29.3075 44.9458 36.8814 32.7729 32.2712C27.3108 30.1308 21.6926 29.8015 16.5425 31.2833C11.5716 32.7583 7.21911 35.5384 3.17733 39.4612C3.15643 39.4815 3.12123 39.4669 3.12123 39.4377V39.4377C3.12123 39.4075 3.0838 39.3932 3.06369 39.4159L1.07583 41.6529C0.88546 41.8672 0.692559 42.0955 0.487274 42.2955C0.480928 42.3017 0.474571 42.3081 0.468213 42.3148V42.3148C0.177669 42.6213 0.058686 43.0564 0.156071 43.4673V43.4673C0.305343 44.2548 0.597385 45.0422 0.759079 45.8296C0.773747 45.901 0.792574 45.9716 0.816996 46.0403L0.871456 46.1935C1.23015 47.2026 2.57255 47.3976 3.20352 46.5322V46.5322C3.2526 46.4649 3.29326 46.3918 3.33806 46.3216C3.37893 46.2575 3.42544 46.1993 3.47439 46.1438C3.77516 45.8023 4.06932 45.4474 4.39842 45.1331C7.63234 42.045 12.022 37.9441 18.1032 36.2228Z" fill="#557DE9"/>
<path d="M2.73485 34.5175C3.34312 33.835 4.00672 33.1979 4.6627 32.5611C7.96314 29.3574 11.6352 27.302 15.5626 26.1579C19.7229 25.0582 24.1913 25.2153 28.6598 26.9434C42.5274 32.1278 54.546 23.6442 59.7849 19.0882L61.788 17.0459V17.0459C62.226 16.6886 62.3237 16.0583 62.0143 15.5853L62.003 15.5679C61.9625 15.506 61.9156 15.4487 61.8657 15.394C61.4448 14.933 61.1458 14.3398 60.7094 13.7467L60.6977 13.7307C60.2192 13.0801 59.2718 13.013 58.7063 13.5896V13.5896C58.5522 13.7467 58.2441 14.0609 58.09 14.218C51.6184 20.5021 41.6029 26.9434 30.2006 22.5445C24.8077 20.5022 19.2606 20.1879 14.1758 21.6019C10.94 22.5445 7.85833 24.1155 4.77664 26.1579L1.54085 28.8287C1.23268 29.1429 1.07859 29.3 0.770424 29.6142V29.6142C0.57292 29.8156 0.462283 30.0864 0.462283 30.3684V30.3997C0.308198 31.4994 0.308179 32.5992 0.154094 33.5418L0.151117 33.6177C0.0992533 34.9396 1.72045 35.612 2.61946 34.6415V34.6415C2.65782 34.6024 2.69619 34.5608 2.73485 34.5175Z" fill="#557DE9"/>
<path d="M67.8544 33.8287C67.9066 32.6495 66.487 32.0165 65.6447 32.8435V32.8435C65.3306 33.1519 65.0166 33.4603 64.7025 33.7687C58.2635 39.7823 47.8983 46.2585 36.2768 41.941C30.7801 39.9365 25.1264 39.6281 19.9439 41.0159C15.0754 42.4036 10.678 44.8708 6.75181 48.5714L4.71021 50.7301V50.7301C4.33743 51.1877 4.30916 51.8356 4.64067 52.3239L4.71021 52.4263C5.18136 53.0431 5.49547 53.5057 5.80957 54.1225V54.1225C6.27662 54.8103 7.27711 54.8471 7.7934 54.1954L7.85117 54.1225C8.00822 53.9683 8.3223 53.6598 8.47935 53.5056C12.2485 49.4966 16.3317 47.0295 21.0432 45.7959C25.2835 44.7165 29.8378 44.8707 34.3922 46.5669C38.3184 47.9546 42.4017 48.4172 46.4849 47.9547C53.7091 47.1837 60.9333 43.1746 66.2729 38.703C66.587 38.3946 66.9011 38.2404 67.2152 37.932L67.3563 37.7935C67.5674 37.5862 67.6864 37.3027 67.6864 37.0068V37.0068C67.6864 36.0816 67.8434 35.0023 67.8434 34.0771L67.8544 33.8287Z" fill="#557DE9"/>
<path d="M18.1032 36.2228C22.3168 35.0702 26.8426 35.2349 31.3684 37.046C36.3624 39.0218 49.1594 41.8209 63.5171 28.155L65.858 25.6853L66.0141 25.5206L66.0327 25.501C66.403 25.1103 66.5171 24.5421 66.3262 24.0388V24.0388C66.1701 23.3802 65.858 22.557 65.5459 21.7337L65.4292 21.389C65.1279 20.499 63.9882 20.2488 63.3418 20.9308V20.9308C63.2511 21.0264 63.1809 21.1393 63.102 21.2448C62.9321 21.4718 62.6784 21.6306 62.4247 21.8983C55.5579 29.3075 44.9458 36.8814 32.7729 32.2712C27.3108 30.1308 21.6926 29.8015 16.5425 31.2833C11.5716 32.7583 7.21911 35.5384 3.17733 39.4612C3.15643 39.4815 3.12123 39.4669 3.12123 39.4377V39.4377C3.12123 39.4075 3.0838 39.3932 3.06369 39.4159L1.07583 41.6529C0.88546 41.8672 0.692559 42.0955 0.487274 42.2955C0.480928 42.3017 0.474571 42.3081 0.468213 42.3148V42.3148C0.177669 42.6213 0.058686 43.0564 0.156071 43.4673V43.4673C0.305343 44.2548 0.597385 45.0422 0.759079 45.8296C0.773747 45.901 0.792574 45.9716 0.816996 46.0403L0.871456 46.1935C1.23015 47.2026 2.57255 47.3976 3.20352 46.5322V46.5322C3.2526 46.4649 3.29326 46.3918 3.33806 46.3216C3.37893 46.2575 3.42544 46.1993 3.47439 46.1438C3.77516 45.8023 4.06932 45.4474 4.39842 45.1331C7.63234 42.045 12.022 37.9441 18.1032 36.2228Z" fill="#557DE9"/>
<path d="M2.73485 34.5175C3.34312 33.835 4.00672 33.1979 4.6627 32.5611C7.96314 29.3574 11.6352 27.302 15.5626 26.1579C19.7229 25.0582 24.1913 25.2153 28.6598 26.9434C42.5274 32.1278 54.546 23.6442 59.7849 19.0882L61.788 17.0459V17.0459C62.226 16.6886 62.3237 16.0583 62.0143 15.5853L62.003 15.5679C61.9625 15.506 61.9156 15.4487 61.8657 15.394C61.4448 14.933 61.1458 14.3398 60.7094 13.7467L60.6977 13.7307C60.2192 13.0801 59.2718 13.013 58.7063 13.5896V13.5896C58.5522 13.7467 58.2441 14.0609 58.09 14.218C51.6184 20.5021 41.6029 26.9434 30.2006 22.5445C24.8077 20.5022 19.2606 20.1879 14.1758 21.6019C10.94 22.5445 7.85833 24.1155 4.77664 26.1579L1.54085 28.8287C1.23268 29.1429 1.07859 29.3 0.770424 29.6142V29.6142C0.57292 29.8156 0.462283 30.0864 0.462283 30.3684V30.3997C0.308198 31.4994 0.308179 32.5992 0.154094 33.5418L0.151117 33.6177C0.0992533 34.9396 1.72045 35.612 2.61946 34.6415V34.6415C2.65782 34.6024 2.69619 34.5608 2.73485 34.5175Z" fill="#557DE9"/>
<path d="M67.8544 33.8287C67.9066 32.6495 66.487 32.0165 65.6447 32.8435V32.8435C65.3306 33.1519 65.0166 33.4603 64.7025 33.7687C58.2635 39.7823 47.8983 46.2585 36.2768 41.941C30.7801 39.9365 25.1264 39.6281 19.9439 41.0159C15.0754 42.4036 10.678 44.8708 6.75181 48.5714L4.71021 50.7301V50.7301C4.33743 51.1877 4.30916 51.8356 4.64067 52.3239L4.71021 52.4263C5.18136 53.0431 5.49547 53.5057 5.80957 54.1225V54.1225C6.27662 54.8103 7.27711 54.8471 7.7934 54.1954L7.85117 54.1225C8.00822 53.9683 8.3223 53.6598 8.47935 53.5056C12.2485 49.4966 16.3317 47.0295 21.0432 45.7959C25.2835 44.7165 29.8378 44.8707 34.3922 46.5669C38.3184 47.9546 42.4017 48.4172 46.4849 47.9547C53.7091 47.1837 60.9333 43.1746 66.2729 38.703C66.587 38.3946 66.9011 38.2404 67.2152 37.932L67.3563 37.7935C67.5674 37.5862 67.6864 37.3027 67.6864 37.0068V37.0068C67.6864 36.0816 67.8434 35.0023 67.8434 34.0771L67.8544 33.8287Z" fill="#557DE9"/>
<path d="M9.42505 16.4989L8.95746 15.5737L9.42505 16.4989C10.3603 16.0363 11.4514 15.7279 12.3866 15.4195C16.5951 14.3401 21.1153 14.4943 25.6356 16.1904C28.5971 17.2698 31.5586 17.7324 34.8319 17.7324C41.3784 17.7324 47.925 15.4195 54.0039 10.9478L56.3419 9.09746V9.09746C56.7377 8.78424 56.7336 8.18241 56.3336 7.87461L55.7185 7.40131C55.2509 6.93872 54.6274 6.47616 54.0039 6.16777L53.7928 6.02855C53.3606 5.74355 52.7944 5.76805 52.3885 6.08929V6.08929C52.3226 6.14146 52.2499 6.18445 52.1802 6.23148C52.0654 6.30894 51.9707 6.40618 51.874 6.5015C51.6545 6.71784 51.3846 6.87911 51.1358 7.06085C42.9995 13.0025 34.8701 14.6043 27.1943 11.7188C21.583 9.71426 15.9716 9.25168 10.3603 10.9478C9.92725 11.0906 9.49422 11.2334 8.93741 11.3762C8.84728 11.3993 8.75951 11.4312 8.67611 11.4725L8.65446 11.4832C8.54544 11.5371 8.44579 11.6082 8.35932 11.6937L8.28452 11.7677C8.11668 11.9337 7.99185 12.1251 7.79922 12.2616V12.2616C7.75163 12.2953 7.69421 12.36 7.66114 12.4081C7.04626 13.3013 6.2913 14.056 5.68418 14.9569L5.54037 15.174C4.77925 16.3233 6.03984 17.7348 7.26749 17.108V17.108C7.45623 17.0117 7.6658 16.9665 7.87653 16.9442C8.50754 16.8771 9.0237 16.6312 9.42505 16.4989Z" fill="#557DE9"/>
<path d="M19.4498 5.55505L19.9984 5.72866C22.3758 6.59664 26.0334 7.46462 30.6054 7.46462C35.3602 7.46462 39.9322 6.42303 44.5042 4.68707L50.1734 2.08312L46.333 0.867982C45.2357 0.520789 44.1384 0.173596 42.8582 0H42.3096L41.761 0.173554C41.2124 0.34715 40.6637 0.694385 40.1151 0.867982C34.6287 2.77754 29.1424 3.12473 23.8389 1.73596C23.2902 1.56237 22.7416 1.38874 22.193 1.21514L21.6444 1.04154L21.0957 1.21514C19.9984 1.56234 18.9012 1.90955 17.8039 2.43034L13.5977 4.1663L17.9868 5.38144C18.3525 5.20785 18.9012 5.38145 19.4498 5.55505Z" fill="#557DE9"/>
<path d="M9.42505 16.4989C10.3603 16.0363 11.4514 15.7279 12.3866 15.4195C16.5951 14.3401 21.1153 14.4943 25.6356 16.1904C28.5971 17.2698 31.5586 17.7324 34.8319 17.7324C41.3784 17.7324 47.925 15.4195 54.0039 10.9478L56.3419 9.09746V9.09746C56.7377 8.78424 56.7336 8.18241 56.3336 7.87461L55.7185 7.40131C55.2509 6.93872 54.6274 6.47616 54.0039 6.16777L53.7928 6.02855C53.3607 5.74356 52.7944 5.76805 52.3885 6.08929V6.08929C52.3226 6.14146 52.2499 6.18445 52.1802 6.23148C52.0654 6.30894 51.9707 6.40618 51.874 6.5015C51.6545 6.71784 51.3846 6.87911 51.1358 7.06085C42.9995 13.0025 34.8701 14.6043 27.1943 11.7188C21.583 9.71426 15.9716 9.25168 10.3603 10.9478C9.92725 11.0906 9.49422 11.2334 8.93741 11.3762C8.84728 11.3993 8.75951 11.4312 8.67611 11.4725L8.65446 11.4832C8.54544 11.5371 8.44579 11.6082 8.35932 11.6937L8.28452 11.7677C8.11668 11.9337 7.99185 12.1251 7.79922 12.2616V12.2616C7.75163 12.2953 7.69421 12.36 7.66114 12.4081C7.04626 13.3013 6.2913 14.056 5.68418 14.9569L5.54037 15.174C4.77925 16.3233 6.03984 17.7348 7.26749 17.108V17.108C7.45623 17.0117 7.6658 16.9665 7.87653 16.9442C8.50754 16.8771 9.0237 16.6312 9.42505 16.4989Z" fill="#557DE9"/>
<path d="M44.2792 63.431L43.9695 64.4101L44.2792 63.431C43.8147 63.2678 43.505 63.1046 43.0405 62.9415C37.6208 60.8201 32.0462 60.4938 26.9363 61.9624C25.8523 62.2888 24.7684 62.6151 23.6845 63.1046L19.9681 64.8996L19.0391 65.3891L22.136 66.5314C23.0651 66.8578 23.9942 67.1841 24.9233 67.5105L25.3878 67.6737L25.8524 67.5105C26.3169 67.3473 26.7814 67.0209 27.246 67.0209C27.5557 67.0209 27.8654 66.8578 28.1751 66.6946C31.8914 65.7155 35.9174 65.7155 40.2532 67.1841C40.7177 67.3473 41.0274 67.5105 41.492 67.6737L42.2662 68L42.7307 67.8368C43.8147 67.5104 45.0535 67.1841 45.9826 66.6946L50.3183 65.0628L45.8277 63.9205C45.3632 63.7574 44.7438 63.5942 44.2792 63.431Z" fill="#557DE9"/>
</svg>
