<svg width="35" height="35" viewBox="0 0 35 35" fill="none" xmlns="http://www.w3.org/2000/svg">
<path d="M26.2051 11.2274L23.6867 11.4926L24.7859 6.12227C24.8848 5.63843 25.1129 5.19044 25.4461 4.82595C25.7793 4.46146 26.2051 4.19412 26.6781 4.05235L31.734 2.53204C32.7375 2.23126 33.7492 2.98048 33.7492 4.03048C33.7492 5.01758 32.7676 5.70665 31.8406 5.37032L31.1379 5.21172L28.3051 6.05118C28.0296 6.13319 27.7804 6.28588 27.5823 6.49408C27.3842 6.70228 27.244 6.95872 27.1758 7.2379L26.2051 11.2274ZM23.5938 22.627L21.841 30.0781L19.7109 29.3262L21.0234 22.627H23.5938Z" fill="#65878D"/>
<path d="M22.357 27.8906H5.15234V30.1684H21.9687L22.357 27.8906Z" fill="#65878D"/>
<path d="M0.53366 13.1469L2.55983 23.0235C2.71569 23.7891 3.38835 24.336 4.16764 24.336H22.9036C23.0273 24.336 23.1474 24.2942 23.2442 24.2172C23.3411 24.1402 23.409 24.0327 23.4368 23.9121L26.7235 9.69065C26.8083 9.32697 26.513 8.99065 26.1411 9.02346L1.99382 11.1836C1.7637 11.2041 1.54051 11.273 1.3389 11.3858C1.13728 11.4986 0.961777 11.6528 0.823905 11.8381C0.686033 12.0235 0.588903 12.2359 0.538883 12.4615C0.488863 12.687 0.487083 12.9206 0.53366 13.1469ZM4.34811 13.4449L5.51296 13.341C5.62649 13.3308 5.74092 13.3443 5.84894 13.3807C5.95696 13.4172 6.0562 13.4757 6.14034 13.5526C6.22447 13.6296 6.29164 13.7232 6.33757 13.8275C6.3835 13.9319 6.40718 14.0446 6.4071 14.1586V15.4766C6.4071 15.9305 6.04069 16.2969 5.58679 16.2969H4.36179C3.9735 16.2969 3.63718 16.0235 3.55788 15.6406L3.37741 14.7547C3.34547 14.6039 3.34592 14.4481 3.37873 14.2975C3.41154 14.1469 3.47596 14.005 3.56773 13.8812C3.6595 13.7573 3.77652 13.6544 3.91106 13.5792C4.04559 13.504 4.19456 13.4582 4.34811 13.4449ZM14.7962 18.4817H16.3493C16.8032 18.4817 17.1696 18.8481 17.1696 19.302V21.0547C17.1696 21.5086 16.8032 21.875 16.3493 21.875H14.7962C14.3423 21.875 13.9758 21.5086 13.9758 21.0547V19.302C13.9758 18.8481 14.3423 18.4817 14.7962 18.4817ZM16.3493 16.2942H14.7962C14.3423 16.2942 13.9758 15.9278 13.9758 15.4738V13.3328C13.9758 12.909 14.3012 12.5535 14.7223 12.5153L16.2755 12.3758C16.389 12.3655 16.5034 12.3791 16.6114 12.4155C16.7195 12.4519 16.8187 12.5105 16.9028 12.5874C16.987 12.6643 17.0541 12.7579 17.1001 12.8623C17.146 12.9666 17.1697 13.0794 17.1696 13.1934V15.4738C17.1696 15.9278 16.8032 16.2942 16.3493 16.2942ZM11.7883 19.302V21.0547C11.7883 21.5086 11.4219 21.875 10.968 21.875H9.41491C8.961 21.875 8.5946 21.5086 8.5946 21.0547V19.302C8.5946 18.8481 8.961 18.4817 9.41491 18.4817H10.968C11.4219 18.4817 11.7883 18.8481 11.7883 19.302ZM10.968 16.2942H9.41491C8.961 16.2942 8.5946 15.9278 8.5946 15.4738V13.8141C8.5946 13.3903 8.91999 13.0348 9.34108 12.9965L10.8942 12.8571C11.0077 12.8468 11.1222 12.8603 11.2302 12.8967C11.3382 12.9332 11.4375 12.9917 11.5216 13.0686C11.6057 13.1456 11.6729 13.2392 11.7188 13.3435C11.7648 13.4479 11.7884 13.5606 11.7883 13.6746V15.4738C11.7883 15.9278 11.4219 16.2942 10.968 16.2942ZM23.4751 12.8106L22.8161 15.6571C22.7743 15.8375 22.6727 15.9985 22.5277 16.1137C22.3826 16.2289 22.2029 16.2916 22.0176 16.2914H20.1774C19.7235 16.2914 19.3571 15.925 19.3571 15.4711V12.8516C19.3571 12.4278 19.6825 12.0723 20.1036 12.034L22.6001 11.8098C23.1579 11.7606 23.6008 12.2692 23.4751 12.8106ZM20.511 21.875H19.9067C19.6059 21.875 19.3598 21.6289 19.3598 21.3281V19.302C19.3598 18.8481 19.7262 18.4817 20.1801 18.4817H21.1344C21.6622 18.4817 22.0532 18.9738 21.9329 19.4879L21.5774 21.0301C21.5208 21.2704 21.3846 21.4846 21.1911 21.638C20.9976 21.7913 20.7579 21.8748 20.511 21.875ZM4.3071 19.2938C4.2196 18.8727 4.54225 18.4789 4.97155 18.4789H5.58679C6.04069 18.4789 6.4071 18.8453 6.4071 19.2992V21.1942C6.4071 21.374 6.33565 21.5465 6.20848 21.6737C6.08131 21.8008 5.90882 21.8723 5.72897 21.8723C5.20944 21.8723 4.761 21.5059 4.6571 20.9973L4.3071 19.2938Z" fill="#FAC136"/>
<path d="M20.6562 32.0824C22.3174 32.0824 23.6641 30.7358 23.6641 29.0746C23.6641 27.4134 22.3174 26.0668 20.6562 26.0668C18.9951 26.0668 17.6484 27.4134 17.6484 29.0746C17.6484 30.7358 18.9951 32.0824 20.6562 32.0824Z" fill="#2F2F2F"/>
<path d="M20.6566 30.4773C21.4313 30.4773 22.0594 29.8493 22.0594 29.0746C22.0594 28.2999 21.4313 27.6719 20.6566 27.6719C19.8819 27.6719 19.2539 28.2999 19.2539 29.0746C19.2539 29.8493 19.8819 30.4773 20.6566 30.4773Z" fill="#65878D"/>
<path d="M6.20703 32.0824C7.8682 32.0824 9.21484 30.7358 9.21484 29.0746C9.21484 27.4134 7.8682 26.0668 6.20703 26.0668C4.54586 26.0668 3.19922 27.4134 3.19922 29.0746C3.19922 30.7358 4.54586 32.0824 6.20703 32.0824Z" fill="#2F2F2F"/>
<path d="M6.20742 30.4773C6.98213 30.4773 7.61016 29.8493 7.61016 29.0746C7.61016 28.2999 6.98213 27.6719 6.20742 27.6719C5.43271 27.6719 4.80469 28.2999 4.80469 29.0746C4.80469 29.8493 5.43271 30.4773 6.20742 30.4773Z" fill="#65878D"/>
<path d="M32.4285 6.46952C33.5475 6.46952 34.4547 5.56237 34.4547 4.44335C34.4547 3.32432 33.5475 2.41718 32.4285 2.41718C31.3095 2.41718 30.4023 3.32432 30.4023 4.44335C30.4023 5.56237 31.3095 6.46952 32.4285 6.46952Z" fill="#65878D"/>
</svg>
