<svg width="33" height="33" viewBox="0 0 33 33" fill="none" xmlns="http://www.w3.org/2000/svg">
<g clip-path="url(#clip0_1166_960)">
<path d="M10.6198 31.5969V5.30154C10.6198 4.79371 10.2081 4.38205 9.7003 4.38205H7.29839C6.79057 4.38205 6.37891 4.79371 6.37891 5.30154V31.597C6.37891 32.1048 6.79057 32.5165 7.29839 32.5165H9.7003C10.2081 32.5164 10.6198 32.1048 10.6198 31.5969Z" fill="#9BE69D"/>
<path d="M8.85874 32.5166H7.29859C6.79057 32.5166 6.37891 32.1049 6.37891 31.5969V5.30179C6.37891 4.79377 6.79057 4.38211 7.29859 4.38211H8.85874C8.35137 4.38211 7.9397 4.79377 7.9397 5.30179V31.5969C7.9397 32.1049 8.35137 32.5166 8.85874 32.5166Z" fill="#6FD7A3"/>
<path d="M10.6211 27.1497V28.9999H6.38021V27.1497H10.6211Z" fill="#7A6D79"/>
<path d="M10.6211 7.89862V9.74888H6.38021V7.89862H10.6211Z" fill="#7A6D79"/>
<path d="M7.94141 27.1496V28.9999H6.38061V27.1496H7.94141Z" fill="#685E68"/>
<path d="M7.94141 7.89856V9.74882H6.38061V7.89856H7.94141Z" fill="#685E68"/>
<path d="M6.37764 31.4695V1.53031C6.37764 0.952102 5.90894 0.483398 5.33073 0.483398H1.73051C1.1523 0.483398 0.683594 0.952102 0.683594 1.53031V31.4695C0.683594 32.0477 1.1523 32.5164 1.73051 32.5164H5.33073C5.90894 32.5164 6.37764 32.0477 6.37764 31.4695Z" fill="#FE646F"/>
<path d="M3.50703 32.5166H1.7307C1.1523 32.5166 0.683594 32.0479 0.683594 31.4695V1.53066C0.683594 0.952254 1.1523 0.483551 1.7307 0.483551H3.50709C2.9294 0.483551 2.4607 0.952254 2.4607 1.53066V31.4695C2.46063 32.0479 2.92933 32.5166 3.50703 32.5166Z" fill="#FD4755"/>
<path d="M6.37891 26.4059V28.5126H0.68486V26.4059H6.37891Z" fill="#7A6D79"/>
<path d="M6.37891 4.48721V6.59386H0.684859V4.48721H6.37891Z" fill="#7A6D79"/>
<path d="M2.46094 26.4059V28.5126H0.683835V26.4059H2.46094Z" fill="#685E68"/>
<path d="M2.46094 4.48721V6.59386H0.683836V4.48721H2.46094Z" fill="#685E68"/>
<path d="M22.0221 31.5969V5.30154C22.0221 4.79371 21.6105 4.38205 21.1026 4.38205H18.7007C18.1929 4.38205 17.7812 4.79371 17.7812 5.30154V31.597C17.7812 32.1048 18.1929 32.5165 18.7007 32.5165H21.1026C21.6104 32.5164 22.0221 32.1048 22.0221 31.5969Z" fill="#D9B1EE"/>
<path d="M20.2611 32.5166H18.7009C18.1929 32.5166 17.7812 32.1049 17.7812 31.5969V5.30179C17.7812 4.79377 18.1929 4.38211 18.7009 4.38211H20.2611C19.7537 4.38211 19.342 4.79377 19.342 5.30179V31.5969C19.342 32.1049 19.7537 32.5166 20.2611 32.5166Z" fill="#CB97E7"/>
<path d="M22.0234 27.1497V28.9999H17.7826V27.1497H22.0234Z" fill="#7A6D79"/>
<path d="M19.3438 27.1497V28.9999H17.783V27.1497H19.3438Z" fill="#685E68"/>
<path d="M17.781 31.4695V4.0416C17.781 3.46339 17.3123 2.99469 16.7341 2.99469H11.6641C11.0859 2.99469 10.6172 3.46339 10.6172 4.0416V31.4695C10.6172 32.0477 11.0859 32.5164 11.6641 32.5164H16.7341C17.3123 32.5164 17.781 32.0477 17.781 31.4695Z" fill="#528FD8"/>
<path d="M13.4407 32.5166H11.6643C11.0859 32.5166 10.6172 32.0479 10.6172 31.4695V4.04195C10.6172 3.46355 11.0859 2.99484 11.6643 2.99484H13.4407C12.863 2.99484 12.3943 3.46355 12.3943 4.04195V31.4695C12.3942 32.0479 12.863 32.5166 13.4407 32.5166Z" fill="#0D70C2"/>
<path d="M17.7812 26.4059V28.5126H10.6174V26.4059H17.7812Z" fill="#7A6D79"/>
<path d="M17.7812 6.9985V9.10515H10.6174V6.9985H17.7812Z" fill="#7A6D79"/>
<path d="M12.3945 26.4059V28.5126H10.6174V26.4059H12.3945Z" fill="#685E68"/>
<path d="M12.3945 6.9985V9.10515H10.6174V6.9985H12.3945Z" fill="#685E68"/>
<path d="M31.6042 28.3039C30.5364 29.3716 28.7633 29.2157 27.8984 27.9779L24.4766 23.0816L24.6757 21.3754L26.3819 21.1763L31.2782 24.5981C32.5159 25.463 32.6719 27.2362 31.6042 28.3039Z" fill="#7A6D79"/>
<path d="M31.6044 28.3037C30.5367 29.3714 28.7634 29.2152 27.8986 27.978L24.4766 23.0813L24.6757 21.375L25.0897 22.4681L28.9866 26.8899C29.9714 28.0071 31.224 28.6841 31.6044 28.3037Z" fill="#685E68"/>
<path d="M18.0271 23.4012C22.8185 23.4012 26.7027 19.517 26.7027 14.7256C26.7027 9.93421 22.8185 6.05002 18.0271 6.05002C13.2358 6.05002 9.35156 9.93421 9.35156 14.7256C9.35156 19.517 13.2358 23.4012 18.0271 23.4012Z" fill="#FEE97D"/>
<path d="M19.0775 23.3378C18.7334 23.3797 18.3827 23.401 18.027 23.401C13.2355 23.401 9.35156 19.5171 9.35156 14.7256C9.35156 9.93418 13.2355 6.05023 18.027 6.05023C18.3827 6.05023 18.7334 6.0715 19.0775 6.1134C14.7817 6.6316 11.4527 10.29 11.4527 14.7256C11.4527 19.1613 14.7817 22.8196 19.0775 23.3378Z" fill="#FFD15B"/>
<path d="M18.0277 21.2611C21.6371 21.2611 24.5632 18.3351 24.5632 14.7256C24.5632 11.1162 21.6371 8.19012 18.0277 8.19012C14.4182 8.19012 11.4922 11.1162 11.4922 14.7256C11.4922 18.3351 14.4182 21.2611 18.0277 21.2611Z" fill="#FAF7F7"/>
<path d="M19.1506 21.1651C18.7859 21.2282 18.4107 21.2612 18.0277 21.2612C14.4183 21.2612 11.4922 18.335 11.4922 14.7256C11.4922 11.1162 14.4183 8.19006 18.0277 8.19006C18.4107 8.19006 18.7859 8.22306 19.1506 8.2861C16.076 8.81867 13.7379 11.4991 13.7379 14.7256C13.7379 17.9521 16.076 20.6325 19.1506 21.1651Z" fill="#D8ECFE"/>
<path d="M25.3452 19.199L22.4996 22.0446C22.0835 22.4608 22.0835 23.1356 22.4996 23.5517C22.9158 23.9679 23.5906 23.9679 24.0068 23.5517L26.8524 20.7061C27.2686 20.29 27.2686 19.6151 26.8524 19.199C26.4362 18.7828 25.7615 18.7828 25.3452 19.199Z" fill="#FEE97D"/>
<path d="M24.6258 22.4912C24.8982 22.4912 25.1715 22.3871 25.3794 22.1792L24.0068 23.5518C23.7985 23.7601 23.5256 23.8638 23.2532 23.8638C22.9807 23.8638 22.7079 23.7601 22.4996 23.5518C22.0834 23.1356 22.0835 22.4608 22.4996 22.0447L23.8722 20.6721C23.456 21.0883 23.456 21.7631 23.8722 22.1792C24.0805 22.3875 24.353 22.4917 24.6258 22.4912Z" fill="#FFD15B"/>
<path d="M18.027 16.7695C17.5204 16.7695 17.1098 16.3588 17.1098 15.8523V15.6315C17.1098 14.759 17.6277 13.9752 18.4293 13.6347C18.8364 13.4618 19.0885 13.0483 19.0568 12.6055C19.0214 12.1125 18.6251 11.7044 18.1348 11.6562C17.5779 11.6015 17.0812 11.9888 17.0046 12.5382C16.998 12.5857 16.9946 12.6345 16.9946 12.6833C16.9946 13.1899 16.5839 13.6006 16.0774 13.6006C15.5708 13.6006 15.1602 13.1899 15.1602 12.6833C15.1602 12.5499 15.1694 12.4157 15.1878 12.2844C15.401 10.757 16.7748 9.67962 18.3144 9.83038C19.6824 9.96489 20.7883 11.1015 20.8868 12.4743C20.9745 13.699 20.2753 14.8439 19.1466 15.3231C19.0239 15.3753 18.9445 15.4963 18.9445 15.6315V15.8522C18.9443 16.3588 18.5336 16.7695 18.027 16.7695Z" fill="#FE646F"/>
<path d="M18.0266 19.6348C17.52 19.6348 17.1094 19.2241 17.1094 18.7176C17.1094 18.211 17.5201 17.7972 18.0266 17.7972C18.5331 17.7972 18.9438 18.2048 18.9438 18.7114V18.7176C18.9438 19.2241 18.5331 19.6348 18.0266 19.6348Z" fill="#FE646F"/>
</g>
<defs>
<clipPath id="clip0_1166_960">
<rect width="33" height="33" fill="white"/>
</clipPath>
</defs>
</svg>
