<svg width="32" height="32" viewBox="0 0 32 32" fill="none" xmlns="http://www.w3.org/2000/svg">
<g clip-path="url(#clip0_1124_855)">
<path fill-rule="evenodd" clip-rule="evenodd" d="M26.5872 -8.54256e-07C27.3672 -8.54256e-07 28.0012 0.633999 28.0012 1.414V4H30.5872C30.8669 3.99994 31.1404 4.08284 31.3729 4.2382C31.6055 4.39357 31.7868 4.61443 31.8939 4.87284C32.0009 5.13126 32.0289 5.41561 31.9743 5.68994C31.9197 5.96427 31.785 6.21625 31.5872 6.414L28.6672 9.334C28.2408 9.75941 27.6635 9.99883 27.0612 10H24.1212L17.0612 17.06C16.7769 17.325 16.4008 17.4692 16.0122 17.4624C15.6236 17.4555 15.2528 17.2981 14.978 17.0232C14.7031 16.7484 14.5457 16.3776 14.5389 15.989C14.532 15.6004 14.6762 15.2243 14.9412 14.94L22.0012 7.88V4.94C22.0012 4.338 22.2412 3.76 22.6672 3.332L25.5872 0.411999C25.7181 0.280081 25.8739 0.175535 26.0456 0.104457C26.2173 0.0333782 26.4014 -0.00281096 26.5872 -0.00200085M5.0012 16C5.00099 14.3691 5.36344 12.7585 6.06232 11.2849C6.7612 9.81131 7.77901 8.51155 9.04206 7.47975C10.3051 6.44794 11.7818 5.70991 13.3652 5.31908C14.9486 4.92825 16.5991 4.89441 18.1972 5.22C18.5851 5.294 18.9864 5.2121 19.3143 4.99205C19.6421 4.77201 19.87 4.43157 19.9484 4.0446C20.0269 3.65763 19.9496 3.25533 19.7333 2.92498C19.5171 2.59463 19.1793 2.36288 18.7932 2.28C15.8445 1.68051 12.7812 2.04698 10.0571 3.32511C7.3331 4.60324 5.09334 6.725 3.66979 9.37595C2.24624 12.0269 1.71467 15.066 2.15385 18.0427C2.59303 21.0195 3.9796 23.7755 6.10805 25.9024C8.23651 28.0293 10.9936 29.4139 13.9707 29.8509C16.9478 30.2879 19.9864 29.7541 22.6363 28.3286C25.2862 26.9031 27.4064 24.6618 28.6825 21.9368C29.9586 19.2118 30.3229 16.1482 29.7212 13.2C29.6419 12.8101 29.411 12.4677 29.0792 12.2481C28.7475 12.0285 28.3421 11.9497 27.9522 12.029C27.5623 12.1083 27.2199 12.3392 27.0003 12.671C26.7807 13.0027 26.7019 13.4081 26.7812 13.798C26.9265 14.5087 26.9999 15.2427 27.0012 16C27.0012 18.9174 25.8423 21.7153 23.7794 23.7782C21.7165 25.8411 18.9186 27 16.0012 27C13.0838 27 10.2859 25.8411 8.22303 23.7782C6.16013 21.7153 5.0012 18.9174 5.0012 16ZM15.7292 11.008C16.1265 10.9868 16.4991 10.8086 16.765 10.5127C17.0309 10.2167 17.1684 9.82729 17.1472 9.43C17.126 9.03271 16.9478 8.66011 16.6519 8.39418C16.3559 8.12826 15.9665 7.99078 15.5692 8.012C14.0331 8.09478 12.5533 8.61872 11.3074 9.52104C10.0614 10.4234 9.10204 11.6658 8.5442 13.0995C7.98636 14.5331 7.85371 16.0973 8.16215 17.6044C8.47059 19.1115 9.20704 20.4978 10.2833 21.597C11.3595 22.6963 12.7298 23.4619 14.2301 23.8022C15.7304 24.1425 17.2969 24.043 18.7421 23.5157C20.1873 22.9883 21.4497 22.0555 22.3782 20.8289C23.3067 19.6023 23.8619 18.1341 23.9772 16.6C24.0066 16.2032 23.8773 15.811 23.6175 15.5097C23.3578 15.2083 22.989 15.0224 22.5922 14.993C22.1954 14.9636 21.8032 15.0929 21.5019 15.3527C21.2005 15.6124 21.0146 15.9812 20.9852 16.378C20.9123 17.3363 20.5647 18.2532 19.9841 19.0191C19.4035 19.7849 18.6145 20.3672 17.7115 20.6963C16.8085 21.0253 15.8299 21.0872 14.8927 20.8744C13.9554 20.6616 13.0994 20.1832 12.427 19.4966C11.7547 18.8099 11.2945 17.944 11.1015 17.0025C10.9085 16.061 10.9909 15.0838 11.3389 14.188C11.6869 13.2922 12.2857 12.5156 13.0636 11.9513C13.8415 11.3869 14.7656 11.0587 15.7252 11.006" fill="#E11D48"/>
</g>
<defs>
<clipPath id="clip0_1124_855">
<rect width="32" height="32" fill="white"/>
</clipPath>
</defs>
</svg>
