<svg width="150" height="150" viewBox="0 0 150 150" fill="none" xmlns="http://www.w3.org/2000/svg">
<path d="M150 26.25C149.688 13.75 143.094 7.5 130.219 7.5H19.6875C6.875 7.5 0.3125 13.75 0 26.25V131.156C0.3125 143.719 6.875 150 19.6875 150H130.219C143.094 150 149.688 143.719 150 131.156V26.25Z" fill="url(#paint0_linear_1168_763)"/>
<path d="M130.219 7.5C143.094 7.5 149.688 13.75 150 26.25V19.6875C150 6.5625 143.406 0 130.219 0H19.6875C6.5625 0 0 6.5625 0 19.6875V26.25C0.3125 13.75 6.875 7.5 19.6875 7.5H130.219Z" fill="url(#paint1_linear_1168_763)"/>
<path d="M33.6563 58.0312C29.9688 61.7188 28.125 66.125 28.125 71.25C28.125 76.4375 29.9688 80.8437 33.6563 84.4687C37.2813 88.1562 41.6875 90 46.875 90C52.0625 90 56.4687 88.1562 60.0937 84.4687C63.7812 80.8437 65.625 76.4375 65.625 71.25C65.625 66.125 63.7812 61.7188 60.0937 58.0312C56.4687 54.3437 52.0625 52.5 46.875 52.5C41.6875 52.5 37.2813 54.3437 33.6563 58.0312Z" fill="white"/>
<path d="M54.8438 79.2188C57.0312 77.0312 58.125 74.375 58.125 71.25C58.125 68.1875 57.0312 65.5625 54.8438 63.375C52.6562 61.125 50 60 46.875 60C43.8125 60 41.1875 61.125 39 63.375C36.75 65.5625 35.625 68.1875 35.625 71.25C35.625 74.375 36.75 77.0312 39 79.2188C41.1875 81.4062 43.8125 82.5 46.875 82.5C50 82.5 52.6562 81.4062 54.8438 79.2188Z" fill="#3D465D"/>
<path d="M89.9062 58.0312C86.2187 61.7188 84.375 66.125 84.375 71.25C84.375 76.4375 86.2187 80.8437 89.9062 84.4687C93.5312 88.1562 97.9375 90 103.125 90C108.312 90 112.719 88.1562 116.344 84.4687C120.031 80.8437 121.875 76.4375 121.875 71.25C121.875 66.125 120.031 61.7188 116.344 58.0312C112.719 54.3437 108.312 52.5 103.125 52.5C97.9375 52.5 93.5312 54.3437 89.9062 58.0312Z" fill="white"/>
<path d="M111.094 79.2188C113.281 77.0312 114.375 74.375 114.375 71.25C114.375 68.1875 113.281 65.5625 111.094 63.375C108.906 61.125 106.25 60 103.125 60C100.062 60 97.4375 61.125 95.25 63.375C93 65.5625 91.875 68.1875 91.875 71.25C91.875 74.375 93 77.0312 95.25 79.2188C97.4375 81.4062 100.062 82.5 103.125 82.5C106.25 82.5 108.906 81.4062 111.094 79.2188Z" fill="#3D465D"/>
<path d="M90.375 102.094V102C91.125 101.437 91.8438 100.875 92.5313 100.312C93.2813 99.625 93.6875 98.7812 93.75 97.7812C93.8125 96.7187 93.5 95.8125 92.8125 95.0625C92.125 94.25 91.2812 93.8125 90.2812 93.75C89.2188 93.6875 88.3125 94 87.5625 94.6875C87.0625 95.125 86.5312 95.5625 85.9688 96H85.875C82.875 98.25 79.25 99.375 75 99.375C70.625 99.375 66.9062 98.25 63.8438 96C63.4688 95.6875 63.125 95.375 62.8125 95.0625C62.125 94.25 61.2812 93.8125 60.2812 93.75C59.2188 93.6875 58.3125 94 57.5625 94.6875C56.75 95.375 56.3125 96.25 56.25 97.3125C56.1875 98.3125 56.5 99.2188 57.1875 100.031C57.75 100.656 58.4375 101.281 59.25 101.906C59.3125 101.906 59.3437 101.937 59.3437 102C63.6562 105.25 68.875 106.875 75 106.875C81 106.875 86.125 105.281 90.375 102.094Z" fill="#3D465D"/>
<defs>
<linearGradient id="paint0_linear_1168_763" x1="75" y1="-2.05871e-07" x2="75" y2="150" gradientUnits="userSpaceOnUse">
<stop stop-color="#7BAAEB"/>
<stop offset="1" stop-color="#6C75E9"/>
</linearGradient>
<linearGradient id="paint1_linear_1168_763" x1="74.5312" y1="-0.46875" x2="74.5312" y2="81.0937" gradientUnits="userSpaceOnUse">
<stop stop-color="#95C2F0"/>
<stop offset="1" stop-color="#6B8EE9"/>
</linearGradient>
</defs>
</svg>
