<svg width="150" height="150" viewBox="0 0 150 150" fill="none" xmlns="http://www.w3.org/2000/svg">
<path d="M150 26.25C149.688 13.75 143.094 7.5 130.219 7.5H19.6875C6.875 7.5 0.3125 13.75 0 26.25V131.156C0.3125 143.719 6.875 150 19.6875 150H130.219C143.094 150 149.688 143.719 150 131.156V26.25Z" fill="url(#paint0_linear_1166_1348)"/>
<path d="M130.219 7.5C143.094 7.5 149.688 13.75 150 26.25V19.6875C150 6.5625 143.406 0 130.219 0H19.6875C6.5625 0 0 6.5625 0 19.6875V26.25C0.3125 13.75 6.875 7.5 19.6875 7.5H130.219Z" fill="url(#paint1_linear_1166_1348)"/>
<path d="M60.3984 66.4904C56.7734 62.8029 52.3672 60.9592 47.1797 60.9592C41.9922 60.9592 37.5859 62.8029 33.9609 66.4904C30.2734 70.1154 28.4297 74.5217 28.4297 79.7092H65.9297C65.9297 74.5217 64.0859 70.1154 60.3984 66.4904Z" fill="white"/>
<path d="M55.1367 71.7404C52.9492 69.5529 50.293 68.4592 47.168 68.4592C44.1055 68.4592 41.4805 69.5529 39.293 71.7404C37.043 73.9279 35.918 76.5842 35.918 79.7092H58.418C58.418 76.5842 57.3242 73.9279 55.1367 71.7404Z" fill="#3D465D"/>
<path d="M116.648 66.4904C113.023 62.8029 108.617 60.9592 103.43 60.9592C98.2422 60.9592 93.8359 62.8029 90.2109 66.4904C86.5234 70.1154 84.6797 74.5217 84.6797 79.7092H122.18C122.18 74.5217 120.336 70.1154 116.648 66.4904Z" fill="white"/>
<path d="M111.398 71.7404C109.211 69.5529 106.555 68.4592 103.43 68.4592C100.367 68.4592 97.7422 69.5529 95.5547 71.7404C93.3047 73.9279 92.1797 76.5842 92.1797 79.7092H114.68C114.68 76.5842 113.586 73.9279 111.398 71.7404Z" fill="#3D465D"/>
<path d="M24.9591 61.7091C25.3966 62.5841 26.1466 63.1466 27.2091 63.3966L63.3966 73.1466C64.3966 73.3966 65.3654 73.2716 66.3029 72.7716C67.1779 72.2716 67.7404 71.4904 67.9904 70.4279L69.9591 63.2091C70.2091 62.1466 70.0841 61.2091 69.5841 60.3966C69.0216 59.4591 68.2404 58.8654 67.2404 58.6154L31.0529 48.8654C29.9904 48.6154 29.0529 48.7716 28.2404 49.3341C27.3029 49.7716 26.7091 50.5216 26.4591 51.5841L24.4904 58.8029C24.2404 59.8654 24.3966 60.8341 24.9591 61.7091Z" fill="#3D465D"/>
<path d="M84.3008 72.7716C85.2383 73.2716 86.207 73.3966 87.207 73.1466L123.395 63.3966C124.457 63.1466 125.207 62.5841 125.645 61.7091C126.207 60.8341 126.363 59.8654 126.113 58.8029L124.145 51.5841C123.895 50.5216 123.301 49.7716 122.363 49.3341C121.551 48.7716 120.613 48.6154 119.551 48.8654L83.3633 58.6154C82.3633 58.8654 81.582 59.4591 81.0195 60.3966C80.5195 61.2091 80.3945 62.1466 80.6445 63.2091L82.6133 70.4279C82.8633 71.4904 83.4258 72.2716 84.3008 72.7716Z" fill="#3D465D"/>
<path d="M110.555 91.8029C109.117 89.9904 107.43 89.0842 105.492 89.0842C84.8672 94.2717 64.6797 94.2717 44.9297 89.0842C42.9922 89.0842 41.3047 89.9904 39.8672 91.8029C38.4922 93.6154 37.8047 95.7717 37.8047 98.2717V98.7404C37.8047 101.178 38.4922 103.334 39.8672 105.209C41.3047 106.959 42.9922 107.834 44.9297 107.834C64.6797 102.709 84.8672 102.709 105.492 107.834C107.43 107.834 109.117 106.959 110.555 105.209C112.055 103.334 112.805 101.178 112.805 98.7404V98.2717C112.805 95.7717 112.055 93.6154 110.555 91.8029Z" fill="white"/>
<defs>
<linearGradient id="paint0_linear_1166_1348" x1="75" y1="-2.05871e-07" x2="75" y2="150" gradientUnits="userSpaceOnUse">
<stop stop-color="#F37F98"/>
<stop offset="1" stop-color="#D74854"/>
</linearGradient>
<linearGradient id="paint1_linear_1166_1348" x1="74.5312" y1="-0.46875" x2="74.5312" y2="81.0937" gradientUnits="userSpaceOnUse">
<stop stop-color="#E26081"/>
<stop offset="1" stop-color="#D44947"/>
</linearGradient>
</defs>
</svg>
