<svg width="31" height="27" viewBox="0 0 31 27" fill="none" xmlns="http://www.w3.org/2000/svg">
<path d="M4.39477 0.969324C9.57507 -1.60619 13.8343 1.52145 15.5 3.72993C17.1658 1.52144 21.4249 -1.60619 26.6053 0.969324C33.2684 4.28203 31.6025 12.5639 26.6052 17.533C24.1668 19.9577 19.8724 24.2278 16.7314 26.6029C16.0057 27.1516 15.0131 27.1271 14.3037 26.5577C11.4244 24.2468 6.7991 19.9237 4.39477 17.533C-0.602591 12.5639 -2.26836 4.28203 4.39477 0.969324Z" fill="#EF4444"/>
<path d="M15.5 12.5C14.2 10.8312 12.9 10 11.6 10C10.9104 10 10.2491 10.2634 9.76152 10.7322C9.27393 11.2011 9 11.837 9 12.5C9 13.163 9.27393 13.7989 9.76152 14.2678C10.2491 14.7366 10.9104 15 11.6 15C12.9 15 14.2 14.1688 15.5 12.5ZM15.5 12.5C16.8 14.1688 18.1 15 19.4 15C20.0896 15 20.7509 14.7366 21.2385 14.2678C21.7261 13.7989 22 13.163 22 12.5C22 11.837 21.7261 11.2011 21.2385 10.7322C20.7509 10.2634 20.0896 10 19.4 10C18.1 10 16.8 10.8312 15.5 12.5Z" stroke="white" stroke-width="2" stroke-linecap="round" stroke-linejoin="round"/>
</svg>
