<svg width="33" height="33" viewBox="0 0 33 33" fill="none" xmlns="http://www.w3.org/2000/svg">
<g clip-path="url(#clip0_1124_868)">
<path d="M16.5 7.33333L10.0833 0H0L12.8333 15.5833L23.3942 11.2292L16.5 7.33333Z" fill="#55ACEE"/>
<path d="M22.9167 0L16.5 7.33333L21.4408 14.036L22.5656 12.6711L33 0H22.9167Z" fill="#3B88C3"/>
<path d="M21.32 14.6905C21.3934 14.4916 21.4401 14.2798 21.4401 14.0553C21.4401 13.569 21.247 13.1027 20.9031 12.7589C20.5593 12.4151 20.093 12.2219 19.6068 12.2219H13.4954C13.0091 12.2219 12.5428 12.4151 12.199 12.7589C11.8552 13.1027 11.662 13.569 11.662 14.0553C11.662 14.2798 11.7079 14.4916 11.7821 14.6905C8.7956 16.3643 6.77344 19.5553 6.77344 23.2219C6.77344 28.622 11.1505 33 16.5515 33C21.9525 33 26.3296 28.622 26.3296 23.2219C26.3287 19.5553 24.3074 16.3643 21.32 14.6905Z" fill="#FFAC33"/>
<path d="M16.5521 30.5553C20.6022 30.5553 23.8854 27.272 23.8854 23.2219C23.8854 19.1719 20.6022 15.8886 16.5521 15.8886C12.502 15.8886 9.21875 19.1719 9.21875 23.2219C9.21875 27.272 12.502 30.5553 16.5521 30.5553Z" fill="#FFD983"/>
<path d="M19.5037 28.0812C19.3701 28.0808 19.24 28.0389 19.1315 27.9611L16.4988 26.0737L13.8671 27.9611C13.758 28.0394 13.6271 28.0814 13.4928 28.0811C13.3585 28.0808 13.2278 28.0382 13.1191 27.9594C13.0104 27.8805 12.9293 27.7694 12.8874 27.6419C12.8454 27.5143 12.8447 27.3768 12.8853 27.2488L13.8671 24.0808L11.2592 22.2429C11.1513 22.1631 11.0713 22.0514 11.0304 21.9237C10.9896 21.7959 10.9899 21.6585 11.0313 21.531C11.0728 21.4034 11.1532 21.2921 11.2614 21.2127C11.3696 21.1334 11.4999 21.09 11.6341 21.0888L14.8644 21.0843L15.8929 17.9951C15.935 17.8674 16.0163 17.7562 16.1253 17.6773C16.2342 17.5985 16.3653 17.5561 16.4998 17.5561C16.6342 17.5561 16.7653 17.5985 16.8742 17.6773C16.9832 17.7562 17.0645 17.8674 17.1066 17.9951L18.1177 21.0843L21.3645 21.0888C21.4989 21.0895 21.6297 21.1325 21.7383 21.2117C21.8468 21.291 21.9276 21.4025 21.9692 21.5303C22.0107 21.6582 22.0109 21.7959 21.9696 21.9238C21.9284 22.0517 21.8478 22.1634 21.7394 22.2429L19.1306 24.0808L20.1123 27.2488C20.1432 27.3446 20.1509 27.4463 20.1349 27.5456C20.1188 27.6449 20.0795 27.739 20.0202 27.8202C19.9608 27.9013 19.883 27.9673 19.7933 28.0127C19.7035 28.0581 19.6043 28.0815 19.5037 28.0812Z" fill="#FFAC33"/>
</g>
<defs>
<clipPath id="clip0_1124_868">
<rect width="33" height="33" fill="white"/>
</clipPath>
</defs>
</svg>
