<svg width="150" height="150" viewBox="0 0 150 150" fill="none" xmlns="http://www.w3.org/2000/svg">
<path d="M150 26.25C149.688 13.75 143.094 7.5 130.219 7.5H19.6875C6.875 7.5 0.3125 13.75 0 26.25V131.156C0.3125 143.719 6.875 150 19.6875 150H130.219C143.094 150 149.688 143.719 150 131.156V26.25Z" fill="url(#paint0_linear_1168_772)"/>
<path d="M130.219 7.5C143.094 7.5 149.688 13.75 150 26.25V19.6875C150 6.5625 143.406 0 130.219 0H19.6875C6.5625 0 0 6.5625 0 19.6875V26.25C0.3125 13.75 6.875 7.5 19.6875 7.5H130.219Z" fill="url(#paint1_linear_1168_772)"/>
<path d="M33.9609 61.3341C30.2734 65.0216 28.4297 69.4279 28.4297 74.5529C28.4297 79.7404 30.2734 84.1466 33.9609 87.7716C37.5859 91.4591 41.9922 93.3029 47.1797 93.3029C52.3672 93.3029 56.7734 91.4591 60.3984 87.7716C64.0859 84.1466 65.9297 79.7404 65.9297 74.5529C65.9297 69.4279 64.0859 65.0216 60.3984 61.3341C56.7734 57.6466 52.3672 55.8029 47.1797 55.8029C41.9922 55.8029 37.5859 57.6466 33.9609 61.3341Z" fill="white"/>
<path d="M39.3047 66.6779C37.0547 68.8654 35.9297 71.4904 35.9297 74.5529C35.9297 77.6779 37.0547 80.3341 39.3047 82.5216C41.4922 84.7091 44.1172 85.8029 47.1797 85.8029C50.3047 85.8029 52.9609 84.7091 55.1484 82.5216C57.3359 80.3341 58.4297 77.6779 58.4297 74.5529C58.4297 71.4904 57.3359 68.8654 55.1484 66.6779C52.9609 64.4279 50.3047 63.3029 47.1797 63.3029C44.1172 63.3029 41.4922 64.4279 39.3047 66.6779Z" fill="#3D465D"/>
<path d="M90.2109 61.3341C86.5234 65.0216 84.6797 69.4279 84.6797 74.5529C84.6797 79.7404 86.5234 84.1466 90.2109 87.7716C93.8359 91.4591 98.2422 93.3029 103.43 93.3029C108.617 93.3029 113.023 91.4591 116.648 87.7716C120.336 84.1466 122.18 79.7404 122.18 74.5529C122.18 69.4279 120.336 65.0216 116.648 61.3341C113.023 57.6466 108.617 55.8029 103.43 55.8029C98.2422 55.8029 93.8359 57.6466 90.2109 61.3341Z" fill="white"/>
<path d="M95.5547 66.6779C93.3047 68.8654 92.1797 71.4904 92.1797 74.5529C92.1797 77.6779 93.3047 80.3341 95.5547 82.5216C97.7422 84.7091 100.367 85.8029 103.43 85.8029C106.555 85.8029 109.211 84.7091 111.398 82.5216C113.586 80.3341 114.68 77.6779 114.68 74.5529C114.68 71.4904 113.586 68.8654 111.398 66.6779C109.211 64.4279 106.555 63.3029 103.43 63.3029C100.367 63.3029 97.7422 64.4279 95.5547 66.6779Z" fill="#3D465D"/>
<path d="M24.9591 61.7091C25.3966 62.5841 26.1466 63.1466 27.2091 63.3966L63.3966 73.1466C64.3966 73.3966 65.3654 73.2716 66.3029 72.7716C67.1779 72.2716 67.7404 71.4904 67.9904 70.4279L69.9591 63.2091C70.2091 62.1466 70.0841 61.2091 69.5841 60.3966C69.0216 59.4591 68.2404 58.8654 67.2404 58.6154L31.0529 48.8654C29.9904 48.6154 29.0529 48.7716 28.2404 49.3341C27.3029 49.7716 26.7091 50.5216 26.4591 51.5841L24.4904 58.8029C24.2404 59.8654 24.3966 60.8341 24.9591 61.7091Z" fill="#3D465D"/>
<path d="M84.3008 72.7716C85.2383 73.2716 86.207 73.3966 87.207 73.1466L123.395 63.3966C124.457 63.1466 125.207 62.5841 125.645 61.7091C126.207 60.8341 126.363 59.8654 126.113 58.8029L124.145 51.5841C123.895 50.5216 123.301 49.7716 122.363 49.3341C121.551 48.7716 120.613 48.6154 119.551 48.8654L83.3633 58.6154C82.3633 58.8654 81.582 59.4591 81.0195 60.3966C80.5195 61.2091 80.3945 62.1466 80.6445 63.2091L82.6133 70.4279C82.8633 71.4904 83.4258 72.2716 84.3008 72.7716Z" fill="#3D465D"/>
<path d="M92.832 103.615C93.582 102.928 93.9883 102.084 94.0508 101.084C94.1133 100.022 93.8008 99.1154 93.1133 98.3654C92.4258 97.5529 91.582 97.1154 90.582 97.0529C89.5195 96.9904 88.6133 97.3029 87.8633 97.9904C87.3633 98.4279 86.832 98.8654 86.2695 99.3029H86.1758C83.1758 101.553 79.5508 102.678 75.3008 102.678C70.9258 102.678 67.207 101.553 64.1445 99.3029C63.7695 98.9904 63.4258 98.6779 63.1133 98.3654C62.4258 97.5529 61.582 97.1154 60.582 97.0529C59.5195 96.9904 58.6133 97.3029 57.8633 97.9904C57.0508 98.6779 56.6133 99.5529 56.5508 100.615C56.4883 101.615 56.8008 102.522 57.4883 103.334C58.0508 103.959 58.7383 104.584 59.5508 105.209C59.6133 105.209 59.6445 105.24 59.6445 105.303C63.957 108.553 69.1758 110.178 75.3008 110.178C81.3008 110.178 86.4258 108.584 90.6758 105.397V105.303C91.4258 104.74 92.1445 104.178 92.832 103.615Z" fill="#3D465D"/>
<defs>
<linearGradient id="paint0_linear_1168_772" x1="75" y1="-2.05871e-07" x2="75" y2="150" gradientUnits="userSpaceOnUse">
<stop stop-color="#FFE383"/>
<stop offset="1" stop-color="#FFB43C"/>
</linearGradient>
<linearGradient id="paint1_linear_1168_772" x1="74.5312" y1="-0.46875" x2="74.5312" y2="81.0937" gradientUnits="userSpaceOnUse">
<stop stop-color="#FFCD59"/>
<stop offset="1" stop-color="#F7A41B"/>
</linearGradient>
</defs>
</svg>
